# xmcd
#
# Track frame offsets:
# 150
# 13714
# 35253
# 50316
# 74403
# 110146
# 132699
# 143797
# 168220
# 188505
# 200736
# 212936
#
# Disc length: 3009 seconds
#
#
# Revision: 0
# Processed by: cddbd v1.5.1PL0 Copyright (c) Steve Scherf et al.
# Submitted via: FreeRIP 2.80 
#
DISCID=b50bbf0c
DTITLE=Illinois Speed Press - Illinois Speed Press
DYEAR=2004
DGENRE=Blues
TTITLE0=Get in the Wind
TTITLE1=Hard Luck Story
TTITLE2=Here Today
TTITLE3=Pay the Price
TTITLE4=P.N.S. (Paul's New Song) - When You Come Around
TTITLE5=Be a Woman
TTITLE6=Sky Song
TTITLE7=Beauty
TTITLE8=Free Ride
TTITLE9=Right on Time
TTITLE10=Night People
TTITLE11=G.I.T.W Pt. 2
EXTD=
EXTT0=
EXTT1=
EXTT2=
EXTT3=
EXTT4=
EXTT5=
EXTT6=
EXTT7=
EXTT8=
EXTT9=
EXTT10=
EXTT11=
PLAYORDER=
